Coordinates
version=1
nRows=7
nColumns=46
inDegrees=yes

Units are S.I. units (second, meters, Newtons, ...)
Angles are in degrees.

endheader
time	pelvis_tilt	pelvis_list	pelvis_rotation	pelvis_tx	pelvis_ty	pelvis_tz	bb_angle	bb_tx	bb_ty	bb_tz	hip_flexion_r	hip_adduction_r	hip_rotation_r	knee_angle_r	knee_angle_r_beta	ankle_angle_r	subtalar_angle_r	mtp_angle_r	crank_angle_r	hip_flexion_l	hip_adduction_l	hip_rotation_l	knee_angle_l	knee_angle_l_beta	ankle_angle_l	subtalar_angle_l	mtp_angle_l	crank_angle_l	lumbar_extension	lumbar_bending	lumbar_rotation	arm_flex_r	arm_add_r	arm_rot_r	elbow_flex_r	pro_sup_r	wrist_flex_r	wrist_dev_r	arm_flex_l	arm_add_l	arm_rot_l	elbow_flex_l	pro_sup_l	wrist_flex_l	wrist_dev_l
      0.00500000	    -19.37097875	     -6.41968423	     -1.94442538	      0.12916998	      1.13282670	     -0.23217046	      0.00000000	      0.50000000	      0.00000000	      0.25000000	     93.83618474	     -6.76033448	     -4.98219749	    105.47819107	      1.84094172	     26.17092655	      1.81018929	      0.00000000	      0.00000000	     47.20979738	    -14.70093627	     -5.42255638	     48.88317788	      0.85317240	     16.55866926	      7.52722506	      0.00000000	      0.00000000	    -49.89453928	      4.59855130	      7.19445276	     89.49448525	     -7.04653770	     31.93334811	     32.55036265	     23.03516248	      0.00000000	      0.00000000	     89.55724790	     -1.75002776	     31.79762814	     28.36983870	     22.05188790	      0.00000000	      0.00000000
      0.01000000	    -19.37852813	     -6.40503216	     -1.96349676	      0.12920565	      1.13282090	     -0.23212023	      0.00000000	      0.50000000	      0.00000000	      0.25000000	     93.84858603	     -6.74064671	     -4.96544512	    105.48772589	      1.84110814	     26.18370621	      1.82801783	      0.00000000	      0.00000000	     47.19979343	    -14.71028242	     -5.46122651	     48.86661060	      0.85288325	     16.55485461	      7.55862243	      0.00000000	      0.00000000	    -49.88858420	      4.58567495	      7.15269613	     89.49475119	     -6.89030354	     31.52433360	     32.17450005	     24.66524280	      0.00000000	      0.00000000	     89.56429875	     -1.47085282	     30.88340985	     27.90912719	     23.61792049	      0.00000000	      0.00000000
      0.01500000	    -19.41260118	     -6.41895732	     -1.95266489	      0.12918442	      1.13275083	     -0.23213588	      0.00000000	      0.50000000	      0.00000000	      0.25000000	     93.88628608	     -6.75989359	     -4.97883098	    105.50119826	      1.84134327	     26.17994077	      1.83693822	      0.00000000	      0.00000000	     47.24684363	    -14.71003796	     -5.44065362	     48.86765312	      0.85290144	     16.54850797	      7.56499741	      0.00000000	      0.00000000	    -49.85899811	      4.61184056	      7.14522361	     89.49570242	     -6.86529691	     31.37406208	     31.90883075	     26.17392779	      0.00000000	      0.00000000	     89.56121807	     -1.36570201	     30.30479484	     27.63976158	     25.05958564	      0.00000000	      0.00000000
      0.02000000	    -19.50890726	     -6.62151249	     -2.05451278	      0.12880237	      1.13205568	     -0.23145704	      0.00000000	      0.50000000	      0.00000000	      0.25000000	     94.03522026	     -6.56016238	     -5.17543501	    105.54278756	      1.84206914	     26.17160216	      1.81989361	      0.00000000	      0.00000000	     47.52082308	    -14.96753084	     -5.27437542	     49.07597311	      0.85653731	     16.61123185	      8.06497423	      0.00000000	      0.00000000	    -49.80092334	      4.64977980	      7.46988992	     89.48172286	     -7.03461140	     30.80582201	     32.14929327	     27.31112756	      0.00000000	      0.00000000	     89.54999048	     -1.28084283	     29.59601064	     27.81231532	     26.15015589	      0.00000000	      0.00000000
      0.02500000	    -19.56352850	     -6.52893686	     -2.06989322	      0.12881491	      1.13230676	     -0.23166821	      0.00000000	      0.50000000	      0.00000000	      0.25000000	     94.08421173	     -6.51622891	     -5.05537599	    105.49543801	      1.84124274	     26.07621383	      1.62042738	      0.00000000	      0.00000000	     47.53791863	    -14.98349914	     -5.44528798	     49.05898608	      0.85624083	     16.61495929	      7.71829980	      0.00000000	      0.00000000	    -49.67858176	      4.50255828	      7.41631032	     89.48675226	     -7.03155666	     31.03461309	     31.59129967	     27.93185996	      0.00000000	      0.00000000	     89.56241586	     -1.08858323	     29.73120345	     27.35817971	     26.70288608	      0.00000000	      0.00000000
      0.03000000	    -19.47211192	     -6.55257700	     -2.05643570	      0.12879542	      1.13250592	     -0.23171320	      0.00000000	      0.50000000	      0.00000000	      0.25000000	     93.97377463	     -6.53374274	     -5.08177253	    105.50314348	      1.84137722	     26.15001994	      1.73418245	      0.00000000	      0.00000000	     47.42981883	    -14.99670393	     -5.44392736	     49.03745861	      0.85586511	     16.69373563	      7.87064865	      0.00000000	      0.00000000	    -49.83675259	      4.51616861	      7.45329110	     89.48145665	     -7.10807706	     30.74119927	     31.81103223	     28.53529415	      0.00000000	      0.00000000	     89.55545231	     -1.14428487	     29.44575824	     27.63469371	     27.29763650	      0.00000000	      0.00000000
      0.03500000	    -19.56425412	     -6.53296614	     -2.05757977	      0.12872297	      1.13242986	     -0.23176179	      0.00000000	      0.50000000	      0.00000000	      0.25000000	     94.07218733	     -6.53726377	     -5.06643565	    105.47807377	      1.84093968	     26.08967751	      1.62049529	      0.00000000	      0.00000000	     47.51449230	    -14.92511943	     -5.36464928	     48.98844536	      0.85500967	     16.64783334	      7.64790041	      0.00000000	      0.00000000	    -49.70245156	      4.50658492	      7.44861576	     89.49159133	     -7.10028010	     31.00528318	     31.42839293	     28.87637254	      0.00000000	      0.00000000	     89.56189971	     -0.99489435	     29.77202912	     27.17877046	     27.55456931	      0.00000000	      0.00000000
